<?xml version="1.0" encoding="UTF-8" standalone="no"?>
<!-- Created with Inkscape (http://www.inkscape.org/) -->

<svg
   width="213.54387mm"
   height="200.0574mm"
   viewBox="0 0 213.54387 200.0574"
   version="1.1"
   id="svg5"
   sodipodi:docname="ShareMyFile"
   inkscape:version="1.2.2 (732a01da63, 2022-12-09, custom)"
   xmlns:inkscape="http://www.inkscape.org/namespaces/inkscape"
   xmlns:sodipodi="http://sodipodi.sourceforge.net/DTD/sodipodi-0.dtd"
   xmlns="http://www.w3.org/2000/svg"
   xmlns:svg="http://www.w3.org/2000/svg">
  <sodipodi:namedview
     id="namedview7"
     pagecolor="#ffffff"
     bordercolor="#000000"
     borderopacity="0.25"
     inkscape:showpageshadow="2"
     inkscape:pageopacity="0.0"
     inkscape:pagecheckerboard="0"
     inkscape:deskcolor="#d1d1d1"
     inkscape:document-units="mm"
     showgrid="false"
     inkscape:zoom="0.5946522"
     inkscape:cx="403.59726"
     inkscape:cy="379.21326"
     inkscape:window-width="1206"
     inkscape:window-height="960"
     inkscape:window-x="0"
     inkscape:window-y="0"
     inkscape:window-maximized="1"
     inkscape:current-layer="layer1" />
  <defs
     id="defs2">
    <rect
       x="194.17863"
       y="296.70047"
       width="321.53116"
       height="93.896797"
       id="rect113" />
  </defs>
  <g
     inkscape:label="Layer 1"
     inkscape:groupmode="layer"
     id="layer1"
     transform="translate(13.418529,0.53444696)">
    <text
       xml:space="preserve"
       transform="scale(0.26458333)"
       id="text111"
       style="white-space:pre;shape-inside:url(#rect113);fill:#000000" />
    <path
       style="fill:#00ffff;fill-opacity:1;stroke-width:0.497025"
       d="m 124.09368,169.6706 c -7.11726,-1.89242 -13.02773,-7.14044 -15.54383,-13.80165 -0.60298,-1.59636 -1.30198,-2.903 -1.55334,-2.90362 -0.25137,-5.5e-4 -1.28901,1.20361 -2.30589,2.67612 -1.01686,1.47251 -3.2324,3.78364 -4.923359,5.13583 -10.022681,8.01461 -23.990007,8.3425 -35.221108,0.82681 l -3.486237,-2.33293 -11.00708,-0.1375 c -11.825204,-0.14793 -14.275762,-0.63038 -20.080755,-3.95423 -1.933796,-1.10728 -4.679514,-1.93058 -8.604733,-2.58013 -7.143645,-1.18217 -11.024065,-2.74201 -14.9882225,-6.02498 -4.2926519,-3.55501 -6.09013457,-6.57512 -6.72779274,-11.304 -0.17162879,-1.2728 -0.14958779,-3.26521 0.0494551,-4.47095 0.73042167,-4.4246 6.32998984,-10.91409 11.61737114,-13.46374 2.03506,-0.98134 2.222784,-1.21841 1.974683,-2.49378 -0.150791,-0.77512 -0.360335,-3.51075 -0.465656,-6.07917 -0.169057,-4.12276 -0.07216,-5.07772 0.826994,-8.15164 1.111383,-3.799381 2.803901,-6.619357 5.321884,-8.867048 1.380066,-1.231899 2.168462,-1.437287 5.273623,-1.373744 2.008038,0.04111 3.986024,0.184887 4.395525,0.319609 0.612368,0.201455 0.924012,-0.560142 1.755431,-4.28987 1.734965,-7.783079 4.803506,-13.888361 9.248167,-18.400507 3.668703,-3.724394 6.508667,-5.116593 11.217245,-5.498865 4.982851,-0.404523 7.779343,0.402859 12.094608,3.491822 l 3.161998,2.26343 2.577549,-3.950385 c 1.479773,-2.267929 3.793718,-4.955708 5.433086,-6.310838 2.535936,-2.09629 3.24848,-2.386627 6.366328,-2.594165 4.094196,-0.272516 6.484104,0.843563 10.107165,4.719975 l 2.236908,2.39334 2.500991,-2.364124 c 1.375558,-1.30029 3.54736,-3.255314 4.826262,-4.344496 1.87086,-1.59338 2.60823,-2.711345 3.77339,-5.721143 2.79658,-7.224122 6.49483,-11.453001 11.33154,-12.957448 4.23587,-1.317559 8.81936,1.243249 12.89056,7.202 1.27185,1.861528 2.57067,3.217706 3.0816,3.217706 0.48573,0 1.6902,-1.030672 2.67658,-2.290391 0.98639,-1.259717 2.95684,-3.212198 4.37879,-4.338844 2.31206,-1.831919 2.95194,-2.048454 6.05315,-2.048454 3.16756,0 3.69992,0.190126 6.14901,2.195937 3.74088,3.063797 6.82301,8.446283 9.14805,15.975635 1.7284,5.597291 1.90191,5.930546 3.44137,6.609159 3.90595,1.721757 7.28961,6.956368 8.81473,13.636596 l 0.89813,3.933944 2.54872,1.075825 c 5.39944,2.279153 7.81555,5.533548 10.14564,13.665719 1.23737,4.318545 1.312,4.964945 1.312,11.364565 0,6.39968 -0.0746,7.04605 -1.312,11.3646 -2.5304,8.8313 -5.97641,12.98988 -11.24089,13.5653 l -2.75292,0.30091 -1.22427,3.16016 c -2.79881,7.22434 -8.55796,12.0941 -15.46493,13.07668 -2.82243,0.40152 -2.9923,0.51406 -3.22513,2.13654 -1.11071,7.74052 -6.21308,14.37035 -13.47392,17.50751 -3.44115,1.48681 -10.67907,2.12307 -14.02647,1.233 z"
       id="cloud" />
    <path
       style="fill:#000000;stroke-width:0.264583"
       id="path409"
       d="m 40.9775,111.26764 c -0.987795,-0.13635 -1.983485,-0.20315 -2.976784,-0.28617 -0.669563,-0.0196 -1.343089,-0.13895 -2.013329,-0.0888 -0.06299,0.0152 -0.128677,0.0218 -0.188978,0.0455 -0.07454,0.0293 -0.141796,0.0745 -0.212416,0.11229 -0.291555,0.15595 -0.57037,0.32392 -0.842388,0.51182 -0.395571,0.3079 -0.679622,0.72197 -0.904264,1.16473 -0.205785,0.56935 -0.314592,1.16722 -0.474091,1.75018 -0.181493,0.68538 -0.309986,1.38244 -0.466405,2.07361 -0.133593,0.57478 -0.220715,1.15785 -0.268316,1.74559 -0.03239,0.54719 -0.02847,1.09546 -0.03077,1.64332 0.0071,0.55685 -0.005,1.11238 0.02347,1.66859 0.0275,0.46725 0.125884,0.92226 0.270209,1.36604 0.205642,0.46199 0.4031,0.92875 0.659802,1.36516 0.209761,0.32052 0.436083,0.63198 0.718198,0.89239 1.247248,0.81671 2.479693,1.72931 3.89255,2.21202 0.209732,0.0717 0.420674,0.14084 0.630899,0.21195 0.409519,0.13123 0.829339,0.21129 1.257583,0.2426 0.354632,0.11519 0.718804,0.19444 1.05206,0.36496 1.146186,0.81543 0.04867,0.0276 -3.018081,-1.71796 -0.06001,-0.0342 0.114745,0.0769 0.170275,0.11794 0.138504,0.10234 0.257874,0.21901 0.377069,0.34246 0.247232,0.28819 0.482316,0.58611 0.704945,0.89367 0.248303,0.29515 0.505994,0.57965 0.735579,0.88995 0.191193,0.22927 0.326265,0.48521 0.426526,0.7644 0.100108,0.36673 0.211053,0.73014 0.323427,1.09335 0.135599,0.38611 0.142039,0.79706 0.167381,1.20069 0.01378,0.48352 0.01484,0.96722 0.01889,1.45088 0.02008,0.59284 -0.02217,1.18322 -0.05377,1.77467 -0.02058,0.51213 -0.09391,1.01987 -0.147608,1.52918 -0.04013,0.59144 -0.216983,1.15356 -0.385242,1.71755 -0.170928,0.57901 -0.383368,1.14879 -0.646009,1.69274 -0.191876,0.41453 -0.46046,0.78457 -0.819195,1.0677 -0.367538,0.25748 -0.780153,0.42965 -1.214601,0.53419 -0.369671,0.0724 -0.744411,0.0987 -1.111036,0.006 -0.404037,-0.089 -0.779381,-0.26918 -1.147292,-0.45359 -0.120724,-0.0784 -0.259326,-0.12005 -0.386032,-0.18598 -0.06171,-0.0321 -0.239887,-0.14103 -0.179541,-0.10641 5.653162,3.24306 3.936095,2.35151 2.856058,1.62289 -0.207002,-0.13036 -0.405831,-0.27338 -0.604705,-0.41571 0,0 -3.630711,-1.44416 -3.630711,-1.44416 v 0 c 0.193228,0.15199 0.394727,0.29151 0.59095,0.43939 0.106312,0.0662 0.203242,0.14717 0.311428,0.21032 1.367845,0.79836 2.661004,1.64935 4.086823,2.30092 0.393274,0.16965 0.798269,0.32735 1.228026,0.3698 0.40427,0.016 0.812287,-0.0199 1.198121,-0.14874 0.460735,-0.16316 0.912265,-0.36409 1.291587,-0.67863 0.374063,-0.34468 0.704816,-0.74485 0.912246,-1.21323 0.102659,-0.2535 0.185169,-0.51007 0.27454,-0.76837 0.07688,-0.22217 0.170677,-0.43834 0.244681,-0.66148 0.03597,-0.10845 0.06265,-0.21976 0.09398,-0.32964 0.190989,-0.57293 0.408045,-1.14701 0.470487,-1.75146 0.07377,-0.51964 0.09648,-1.04713 0.126135,-1.57066 0.03233,-0.59394 0.09147,-1.18678 0.08377,-1.78189 0.0057,-0.48369 0.01259,-0.96753 0.0077,-1.45123 7.94e-4,-0.43123 -0.03209,-0.86328 -0.103746,-1.2887 -0.115019,-0.35997 -0.260516,-0.71149 -0.312274,-1.08867 -0.08724,-0.31456 -0.173935,-0.62687 -0.378426,-0.88954 -0.238977,-0.30865 -0.454845,-0.63419 -0.742251,-0.90236 -0.246745,-0.28336 -0.441987,-0.60838 -0.684102,-0.89648 -0.134368,-0.18145 -0.334266,-0.45095 -0.528042,-0.56699 -3.316914,-1.98632 -2.26324,-1.53953 -3.678515,-2.12698 -0.364143,-0.11789 -0.73523,-0.23255 -1.116679,-0.27473 -0.406842,-0.06 -0.806998,-0.15572 -1.191353,-0.30454 -0.207788,-0.0759 -0.415814,-0.14744 -0.615585,-0.24332 -0.05816,-0.0279 -0.227581,-0.12147 -0.171833,-0.089 2.978581,1.73395 4.230198,2.39783 2.974969,1.72942 -0.350292,-0.16176 -0.572804,-0.46486 -0.804709,-0.76375 -0.09022,-0.1218 -0.191492,-0.2506 -0.265602,-0.38337 -0.161411,-0.28918 -0.269499,-0.60733 -0.422201,-0.90095 -0.180782,-0.4039 -0.279627,-0.83465 -0.337206,-1.2728 -0.05224,-0.54801 -0.05686,-1.09705 -0.04417,-1.64724 -0.0019,-0.53979 -7.94e-4,-1.07992 0.02183,-1.61931 0.0297,-0.57663 0.08824,-1.15166 0.219144,-1.71521 0.117859,-0.69137 0.272375,-1.37774 0.44201,-2.05784 0.146627,-0.55718 0.323038,-1.10504 0.49503,-1.65464 0.183341,-0.39717 0.441799,-0.73776 0.80227,-0.99247 0.342392,-0.2349 0.70607,-0.46751 1.133432,-0.48617 0.616059,-0.0178 1.233152,-0.002 1.848549,0.0278 1.046422,0.0614 2.098813,0.15394 3.109621,0.44825 0,0 -3.133989,-2.37542 -3.133989,-2.37542 z" />
    <path
       style="fill:#000000;stroke-width:0.264583"
       id="path411"
       d="m 45.95525,108.17292 c 0.250748,1.06085 0.337097,2.14631 0.394292,3.23172 0.04996,1.05674 0.04951,2.11488 0.03822,3.17246 -0.0096,0.83746 -0.0043,1.67507 -0.01611,2.51248 0.0035,0.80391 -0.0041,1.6078 0.0047,2.41167 0.0026,0.74363 -0.09957,1.48172 -0.175061,2.22011 -0.06918,0.77356 -0.196059,1.53906 -0.322062,2.30475 -0.122015,1.04253 -0.235894,2.08642 -0.390982,3.12462 -0.158872,0.8167 -0.294749,1.63864 -0.381151,2.4663 -0.05139,0.75456 -0.13086,1.50676 -0.205327,2.25929 -0.04784,0.72209 -0.08472,1.44159 -0.195218,2.15736 -0.08383,0.55486 -0.128119,1.1142 -0.141452,1.67488 -0.01714,0.4801 -0.01807,0.96018 -0.01651,1.44049 -0.0035,0.45718 -5.29e-4,0.91435 -5.29e-4,1.37156 0.01138,0.5673 0.01093,1.13466 0.02191,1.70198 0.02625,0.76274 0.02024,1.52593 0.0048,2.28879 0.0011,0.46136 0.02233,0.92248 0.04448,1.38323 0,0 3.515775,1.73868 3.515775,1.73868 v 0 c -0.08975,-0.45562 -0.104063,-0.92503 -0.153157,-1.3859 -0.01511,-0.76125 -0.02193,-1.52284 0.0048,-2.28395 0.01103,-0.56002 0.01045,-1.12008 0.02151,-1.68008 -5.3e-4,-0.45789 0.0016,-0.91575 -0.0032,-1.37361 5.29e-4,-0.47937 -0.0024,-0.95869 -0.0011,-1.43803 0.01505,-0.5524 0.0292,-1.10535 0.09511,-1.65466 0.03715,-0.36026 0.09327,-0.72083 0.122095,-1.08168 0.02918,-0.36527 0.01304,-0.73408 0.05845,-1.09849 0.06525,-0.75378 0.163687,-1.50447 0.200301,-2.26071 0.07199,-0.83074 0.198916,-1.65334 0.314451,-2.47891 0.153118,-1.03003 0.225963,-2.07122 0.423675,-3.09486 0.148148,-0.76552 0.291523,-1.53189 0.366199,-2.30878 0.0948,-0.75449 0.146794,-1.51306 0.166259,-2.27318 0.0091,-0.8018 0.0019,-1.60362 0.0068,-2.40544 -0.01008,-0.84357 -0.0016,-1.68731 -0.01534,-2.53088 -0.02104,-1.07431 -0.03989,-2.14888 -0.09437,-3.22215 -0.06057,-1.03531 -0.139152,-2.06952 -0.191293,-3.10527 0,0 -3.500885,-1.78379 -3.500885,-1.78379 z" />
    <path
       style="fill:#000000;stroke-width:0.264583"
       id="path413"
       d="m 50.659811,123.74223 c 0.326051,-0.53428 0.702612,-1.03787 1.095669,-1.52435 0.322879,-0.36214 0.663233,-0.75354 1.119521,-0.95072 0.07381,-0.0319 0.151989,-0.0525 0.227983,-0.0788 0.643665,-0.17929 1.303015,-0.0689 1.95013,0.0252 0.117478,0.0347 0.237141,0.0626 0.352433,0.10397 0.112752,0.0404 0.222922,0.0884 0.330541,0.141 0.104685,0.0512 0.406773,0.22749 0.305512,0.16985 -7.391334,-4.20731 -3.417329,-2.13374 -2.691191,-1.46887 0.08409,0.077 0.155858,0.16646 0.233789,0.24969 0.555998,0.70017 0.640151,1.58049 0.714634,2.43923 0.04989,1.06943 0.05742,2.14033 0.06452,3.21073 -0.03444,1.15457 -0.181795,2.30588 -0.39157,3.44103 -0.221869,0.98615 -0.381942,1.98467 -0.654362,2.95872 -0.287563,0.91891 -0.427308,1.87067 -0.580351,2.81799 -0.165639,0.82056 -0.253415,1.64933 -0.30626,2.4835 -0.08309,0.89083 -0.07359,1.78544 -0.111056,2.67822 -0.03453,0.69496 -0.101889,1.38647 -0.188688,2.0765 -0.02275,0.21241 -0.04614,0.42458 -0.07513,0.63622 0,0 3.460173,1.80953 3.460173,1.80953 v 0 c 0.01722,-0.21897 0.02529,-0.43812 0.04109,-0.6572 0.05221,-0.71435 0.08612,-1.42832 0.102955,-2.14453 0.04051,-0.88401 0.06113,-1.76941 0.135768,-2.6515 0.07455,-0.8252 0.106812,-1.65551 0.25686,-2.47243 0.157396,-0.93472 0.283425,-1.87622 0.567095,-2.78467 0.247925,-0.99362 0.439915,-1.99788 0.636034,-3.0028 0.202441,-1.15938 0.33677,-2.33372 0.402709,-3.50868 0.01169,-1.07189 0.04183,-2.14501 -0.01545,-3.21612 -0.0337,-0.61923 -0.04744,-1.3143 -0.225666,-1.91233 -0.06603,-0.22155 -0.217191,-0.50005 -0.319831,-0.70458 -1.041204,-1.45117 -1.843077,-1.40627 -4.043468,-2.66046 -0.317929,-0.18121 -0.699326,-0.24135 -1.051909,-0.30907 -0.706658,-0.08 -1.435098,-0.16126 -2.114537,0.10544 -0.08567,0.0415 -0.174302,0.0774 -0.257014,0.12447 -0.466053,0.26549 -0.801089,0.69028 -1.134512,1.09872 -0.402008,0.48599 -0.780015,0.99499 -1.222544,1.44554 0,0 3.386127,2.03154 3.386127,2.03154 z" />
    <path
       style="fill:#000000;stroke-width:0.264583"
       id="path415"
       d="m 62.712016,124.5186 c 0.0024,-0.0885 -0.0011,-0.17745 0.0075,-0.26559 0.02331,-0.23677 0.07387,-0.42739 0.122036,-0.65993 0.07269,-0.35094 0.130249,-0.7044 0.197234,-1.05644 0.09131,-0.44152 0.126114,-0.92945 0.440957,-1.27747 0.27183,-0.24398 0.64657,-0.33968 0.995656,-0.41712 0.472416,-0.0797 0.953302,-0.087 1.431206,-0.0931 0.278561,-0.009 0.554937,-0.006 0.832384,0.0202 0.163187,0.0152 0.322429,0.0199 0.474199,0.0919 0.07497,0.0356 0.137962,0.0923 0.206942,0.13846 -7.106238,-3.95688 -3.187285,-2.17147 -2.540418,-1.25878 0.134138,0.18926 0.151791,0.26331 0.243538,0.47809 0.222898,0.66987 0.329586,1.3758 0.421651,2.07406 0.08169,0.77621 0.0922,1.55687 0.106973,2.33643 0.0076,0.776 0.0082,1.55197 0.0071,2.32798 -0.0013,0.69876 -0.01606,1.3971 -0.01688,2.09591 0.0038,0.67048 0.0072,1.34281 0.07363,2.01044 0.07977,0.4949 0.172162,0.98594 0.211971,1.48608 0.0222,0.66072 0.07601,1.31703 0.146357,1.97432 0.109154,0.79459 0.189891,1.59258 0.287882,2.38856 0.124275,1.0686 0.307885,2.12881 0.450969,3.19489 0.109967,0.74951 0.137319,1.50592 0.153665,2.26192 0.0021,0.40506 -0.01019,0.80983 -0.01627,1.21475 -0.0028,0.0455 -0.0055,0.091 -0.0082,0.13654 0,0 3.479043,1.81063 3.479043,1.81063 v 0 c 0.006,-0.056 0.01209,-0.11203 0.01812,-0.16804 -0.0035,-0.41937 -0.01384,-0.83886 -0.03584,-1.25767 -0.03709,-0.7868 -0.123693,-1.5706 -0.235614,-2.35011 -0.168508,-1.05126 -0.357479,-2.10361 -0.424352,-3.16714 -0.07926,-0.78928 -0.147138,-1.57977 -0.247325,-2.36675 -0.07015,-0.64577 -0.134853,-1.28861 -0.11199,-1.93958 -0.0277,-0.51412 -0.07092,-1.02356 -0.213225,-1.52123 -0.12927,-0.64579 -0.118732,-1.31085 -0.112996,-1.96703 -2.64e-4,-0.70389 -0.01431,-1.40739 -0.01384,-2.11123 5.29e-4,-0.77668 0.0056,-1.55333 5.29e-4,-2.33001 -0.0055,-0.79478 -0.03229,-1.58997 -0.113583,-2.38104 -0.064,-0.71384 -0.143335,-1.43074 -0.312669,-2.12815 -0.02127,-0.0638 -0.163838,-0.49708 -0.191603,-0.55794 -0.656254,-1.43835 -3.496561,-2.08454 -4.036301,-2.68836 -0.09014,-0.0252 -0.178572,-0.0575 -0.270415,-0.0755 -0.43884,-0.0859 -0.897815,-0.0159 -1.340289,-0.036 -0.505306,0.0113 -1.012991,0.0204 -1.504357,0.15465 -0.423455,0.12725 -0.859705,0.2625 -1.149607,0.61804 -0.332861,0.46554 -0.40023,0.925 -0.459941,1.48512 -0.106135,0.65675 -0.229407,1.31653 -0.443568,1.94762 0,0 3.489634,1.82756 3.489634,1.82756 z" />
    <path
       style="fill:#000000;stroke-width:0.264583"
       id="path417"
       d="m 65.942163,129.19173 c -0.527516,-0.14674 -1.073275,-0.20683 -1.615586,-0.27032 -0.372525,-0.0275 -0.748371,-0.0932 -1.113366,0.0209 -0.113216,0.0354 -0.410017,0.17088 -0.516499,0.21813 -0.575813,0.24375 -1.08132,0.6154 -1.588762,0.97426 -0.556982,0.3602 -1.019125,0.82591 -1.431597,1.34037 -0.412623,0.48378 -0.628782,1.07471 -0.823529,1.66978 -0.171767,0.70361 -0.307371,1.41386 -0.408948,2.13085 -0.156654,0.83419 -0.196289,1.67992 -0.22326,2.52603 -0.02217,0.56792 -0.02506,1.15635 0.134233,1.70829 0.08053,0.27905 0.13334,0.34722 0.266227,0.5928 0.176953,0.24477 0.360042,0.53801 0.630798,0.69423 3.451503,1.9914 2.240132,1.60564 3.714594,2.05697 0.402452,0.12457 0.805707,0.24776 1.218943,0.33463 0.175213,-0.007 0.365297,0.0386 0.540007,0.005 0.224552,-0.0427 0.426336,-0.17732 0.617535,-0.29291 0.485518,-0.33785 0.918099,-0.74259 1.321654,-1.17309 0.428551,-0.44397 0.726999,-0.97725 1.011833,-1.51836 0.153871,-0.28776 0.08021,-0.14734 0.22134,-0.42107 0,0 -3.383685,-1.91496 -3.383685,-1.91496 v 0 c -0.115961,0.27612 -0.05307,0.1335 -0.189963,0.42728 -0.245012,0.51817 -0.541517,1.0127 -0.946753,1.42316 -0.384519,0.39523 -0.782547,0.7906 -1.277617,1.04623 -0.37193,0.15011 -0.625327,0.14836 -1.011759,0.0556 -0.403653,-0.10762 -0.804447,-0.22688 -1.193596,-0.3796 -1.282462,-0.59875 0.06566,0.0248 2.99425,1.7494 0.05879,0.0346 -0.129138,-0.0456 -0.189445,-0.0774 -0.216053,-0.11426 -0.393041,-0.2898 -0.55332,-0.47048 -0.130516,-0.16463 -0.257797,-0.30664 -0.348284,-0.50004 -0.234485,-0.50116 -0.249307,-1.08599 -0.232971,-1.62641 0.03572,-0.82706 0.09859,-1.6535 0.242369,-2.46977 0.105735,-0.69274 0.236347,-1.38052 0.416181,-2.05808 0.1675,-0.55677 0.382411,-1.09671 0.754028,-1.5521 0.37524,-0.50077 0.851128,-0.89218 1.367092,-1.24349 0.494982,-0.33841 0.986412,-0.6871 1.557885,-0.88765 0.190847,-0.0655 0.284409,-0.10846 0.481253,-0.13657 0.338918,-0.0484 0.685581,0.0183 1.022898,0.0431 0.569354,0.0731 1.129744,0.1875 1.671336,0.38201 0,0 -3.135516,-2.4072 -3.135516,-2.4072 z" />
    <path
       style="fill:#000000;stroke-width:0.264583"
       id="path419"
       d="m 74.788578,122.21342 c 0.09637,-0.45305 0.179371,-0.90665 0.227848,-1.36751 0.05974,-0.49204 0.0634,-0.988 0.07549,-1.48274 0.06184,-1.72184 0.102917,-0.84151 -3.471442,-2.41646 -0.107056,-0.0472 -0.08744,0.21751 -0.119314,0.33007 -0.03586,0.12662 -0.05561,0.25726 -0.08342,0.38589 -0.03195,0.16168 -0.06898,0.32243 -0.09584,0.48503 -0.111461,0.67473 -0.1685,1.35843 -0.245628,2.03744 -0.02825,0.24871 -0.157634,1.31237 -0.188246,1.56496 -0.192336,1.19524 -0.385588,2.38788 -0.485378,3.59488 -0.05202,0.80344 -0.112551,1.60675 -0.152199,2.41095 -0.04282,0.79609 -0.02299,1.59343 -0.03386,2.39015 -0.0038,0.86416 0.0011,1.72835 0.01016,2.59247 0.008,1.04216 0.03405,2.08386 0.0016,3.12573 -0.05179,0.82077 -0.143327,1.63873 -0.217659,2.45787 -0.03979,0.49381 -0.06146,0.98759 -0.05879,1.48292 0.0016,0.46322 -0.0024,0.92641 -0.0011,1.38969 7.94e-4,0.33323 -0.0062,0.66626 -0.01146,0.99944 0,0 3.484565,1.77536 3.484565,1.77536 v 0 c -0.0054,-0.33735 -0.01267,-0.67457 -0.01251,-1.01197 1.74e-4,-0.46317 -0.0057,-0.9262 -0.0024,-1.38933 0.0067,-0.49537 -0.0034,-0.99067 0.009,-1.48593 0.01863,-0.83899 0.08487,-1.67574 0.135218,-2.51323 0.02106,-1.04044 0.0081,-2.08152 0.02697,-3.12215 0.0085,-0.85968 0.01164,-1.71939 0.01225,-2.57911 -0.0041,-0.78899 0.02064,-1.57762 0.0453,-2.36616 0.03573,-0.81184 0.08339,-1.62302 0.08825,-2.43579 0.0602,-1.21951 0.184152,-2.43387 0.352044,-3.64334 0.148659,-1.31304 0.306491,-2.65626 0.681654,-3.92614 0.04636,-0.10585 0.08912,-0.21336 0.139094,-0.31756 0.0098,-0.0205 0.05917,-0.0436 0.03976,-0.0554 -1.114364,-0.67848 -2.251961,-1.31804 -3.37794,-1.97706 0.01572,0.0287 0.03836,0.0547 0.04711,0.0862 0.02635,0.095 0.02357,0.27536 0.02577,0.3648 0.0041,0.48655 -0.0037,0.97351 -0.03838,1.45901 -0.04686,0.43159 -0.109521,0.86137 -0.275026,1.26621 0,0 3.468706,1.89077 3.468706,1.89077 z" />
    <path
       style="fill:#000000;stroke-width:0.264583"
       id="path421"
       d="m 74.295603,122.60446 c 0.411308,-0.0152 0.772975,-0.22776 1.103466,-0.4542 0.441283,-0.39617 0.788469,-0.8785 1.152285,-1.34284 0.357774,-0.44844 0.794567,-0.82043 1.26034,-1.15117 0.359251,-0.26931 0.734319,-0.51485 1.120502,-0.74347 0.09291,-0.0338 0.250719,-0.16995 0.365324,-0.11761 0.02278,0.0104 0.06756,0.0718 0.04563,0.0597 -3.3483,-1.84452 -4.103399,-2.91773 -3.26621,-1.76508 0.159499,0.64466 0.105029,1.31386 0.06302,1.96914 -0.02212,0.46156 -0.09974,0.9141 -0.214559,1.36055 0,0 3.448233,1.85057 3.448233,1.85057 v 0 c 0.0855,-0.48087 0.172063,-0.96296 0.168264,-1.45371 0.03245,-0.67551 0.0543,-1.35077 0.05779,-2.02708 0.0027,-0.075 0.07085,-0.18373 0.0082,-0.22506 -2.761343,-1.82114 -2.472423,-2.73266 -3.954465,-1.76424 -0.379566,0.25065 -0.753914,0.50942 -1.112859,0.78907 -0.468524,0.37556 -0.90529,0.78097 -1.282057,1.2514 -0.347202,0.42935 -0.677645,0.88336 -1.133094,1.20657 -0.323278,0.19284 -0.656884,0.282 -1.034566,0.22908 0,0 3.204774,2.32841 3.204774,2.32841 z" />
    <path
       style="fill:#000000;stroke-width:0.264583"
       id="path423"
       d="m 81.684482,132.16871 c 0.04805,0.009 0.09674,0.015 0.144142,0.0268 0.197514,0.0495 0.386295,0.12109 0.588706,0.15296 0.221438,0.0349 0.31691,0.0285 0.552162,0.0345 0.803608,-0.007 1.606409,0.0367 2.409634,0.0522 0.603618,0.0365 1.197322,-0.0111 1.790232,-0.12241 0.725106,-0.13445 1.42635,-0.37744 2.104546,-0.66426 0.620395,-0.23991 1.208228,-0.55304 1.750581,-0.93698 0.358246,-0.2768 0.684194,-0.60744 0.892858,-1.01446 0.101227,-0.19745 0.161316,-0.40413 0.230581,-0.61335 0.188942,-0.75588 0.08136,-1.51861 -0.07171,-2.26863 -0.214617,-0.88209 -0.55631,-1.72525 -0.898007,-2.56392 -0.361383,-0.87659 -0.826857,-1.70058 -1.314283,-2.51153 -0.418401,-0.71397 -0.881446,-1.39911 -1.345988,-2.08332 -0.260774,-0.44718 -0.575755,-0.84306 -0.968489,-1.17879 -1.238628,-0.92993 -0.35923,-0.281 -3.687704,-2.13586 -0.03714,-0.0207 -0.298834,-0.0849 -0.34788,-0.0878 -0.01236,-8e-4 -0.351536,0.0265 -0.368649,0.0279 -0.460221,0.16014 -0.885132,0.42451 -1.273873,0.71571 -0.429819,0.29901 -0.762201,0.68513 -1.054796,1.11325 -0.294122,0.48438 -0.471332,1.02719 -0.692013,1.54675 -0.249986,0.6628 -0.54897,1.30534 -0.815879,1.96117 -0.221401,0.60431 -0.37115,1.23399 -0.531024,1.85712 -0.142865,0.52809 -0.171964,1.07685 -0.238821,1.61762 -0.0843,0.58006 -0.146741,1.16296 -0.217678,1.74498 -0.112795,0.67599 -0.225579,1.35017 -0.304075,2.03113 -0.07461,0.65358 -0.165794,1.30438 -0.262695,1.95501 -0.123176,0.63005 -0.207541,1.26432 -0.239363,1.90532 -0.02336,0.76809 -0.0085,1.5365 -0.01847,2.30475 -0.0021,0.68246 -0.0027,1.36512 -0.0217,2.04735 -0.01532,0.5503 0.09271,1.08895 0.201502,1.62514 0.146799,0.57888 0.371999,1.13288 0.558215,1.69931 0.122015,0.42098 0.320855,0.81319 0.550069,1.18491 0.133853,0.15286 0.246499,0.3675 0.428799,0.47234 3.46151,1.99067 2.176735,1.76577 3.632174,2.00226 0.359783,0.004 0.719598,0.005 1.079386,0.001 0.526214,0.0245 1.042273,-0.0675 1.557364,-0.16293 0.574477,-0.1731 1.147411,-0.37506 1.675741,-0.66213 0.495329,-0.26019 0.964163,-0.5597 1.396754,-0.91424 0.464347,-0.44988 0.887804,-0.93987 1.269331,-1.46145 0.13807,-0.21086 0.233039,-0.43978 0.294283,-0.68286 0,0 -3.511355,-1.80073 -3.511355,-1.80073 v 0 c 0.07949,0.17048 -0.06474,0.36598 -0.130235,0.5212 -0.314471,0.5186 -0.693952,0.99463 -1.170435,1.37499 -0.442042,0.31839 -0.90723,0.59685 -1.394608,0.84096 -0.492403,0.26169 -1.017357,0.47775 -1.56735,0.57983 -0.524367,0.071 -1.046006,0.0983 -1.575061,0.0733 -0.345935,-0.005 -0.708221,0.0108 -1.035677,-0.11619 -1.23253,-0.6254 0.216746,0.10763 3.143842,1.81803 0.0416,0.0243 -0.09106,-0.0319 -0.134972,-0.0517 -0.1491,-0.0672 -0.254825,-0.17387 -0.368615,-0.2891 -0.290528,-0.30871 -0.480152,-0.69603 -0.639603,-1.08572 -0.191551,-0.55566 -0.423405,-1.09808 -0.581449,-1.66428 -0.122073,-0.5101 -0.21514,-1.02796 -0.243112,-1.55261 -0.01992,-0.68994 -0.02291,-1.38031 -0.02522,-2.07049 -0.0084,-0.75729 0.0013,-1.51506 0.03783,-2.27158 0.03824,-0.62982 0.09458,-1.25832 0.213553,-1.87888 0.09717,-0.65634 0.222825,-1.30676 0.269809,-1.96984 0.06374,-0.67732 0.189529,-1.34518 0.302009,-2.01571 0.09581,-0.57663 0.176416,-1.15381 0.240855,-1.73489 0.0811,-0.52947 0.122852,-1.06354 0.212231,-1.59169 0.129272,-0.61366 0.313256,-1.21358 0.494501,-1.81329 0.251216,-0.65854 0.520223,-1.30968 0.821094,-1.94729 0.20878,-0.49476 0.404146,-0.99933 0.689248,-1.45639 0.272732,-0.38675 0.552751,-0.75967 0.966972,-1.00957 0.349417,-0.2335 0.744676,-0.48941 1.177902,-0.48872 0.161829,0.0159 0.29741,0.0511 0.446709,0.11753 0.05134,0.0228 0.199723,0.10282 0.151207,0.0745 -3.072694,-1.79432 -4.263168,-2.37208 -2.968668,-1.73782 0.186479,0.12764 0.385019,0.25922 0.547714,0.41733 0.203081,0.19736 0.365019,0.43886 0.525045,0.67012 0.471604,0.70252 1.001829,1.36594 1.431747,2.097 0.46871,0.80055 0.941068,1.60025 1.312921,2.45204 0.342175,0.81304 0.679537,1.63095 0.899319,2.48748 0.150492,0.68647 0.294307,1.37784 0.113742,2.07521 -0.17439,0.6552 -0.417672,1.02143 -0.98746,1.40775 -0.526333,0.35761 -1.090356,0.64072 -1.675947,0.88914 -0.666465,0.27431 -1.365589,0.46747 -2.079046,0.57313 -0.583059,0.0794 -1.167532,0.0693 -1.754989,0.0682 -0.794893,0.004 -1.593276,0.0265 -2.383689,-0.0765 -0.462206,-0.0775 -0.909691,-0.20757 -1.368772,-0.2999 0,0 3.164036,2.37011 3.164036,2.37011 z" />
    <path
       style="fill:#000000;stroke-width:0.264583"
       id="path425"
       d="m 97.584618,145.10534 c -0.12348,-1.16309 -0.12779,-2.33652 -0.13982,-3.50511 -0.03,-1.47833 0.0101,-2.95667 0.0226,-4.43493 0.0148,-1.19546 0.0163,-2.39096 0.0167,-3.58648 0.01,-1.19217 -0.008,-2.38416 -0.007,-3.5763 0.003,-1.16711 0.002,-2.33443 0.0176,-3.50146 -0.006,-1.1929 -0.0201,-2.38563 -0.0177,-3.57856 5.3e-4,-1.15315 0.0168,-2.30624 0.0132,-3.45938 0.009,-1.09001 -0.002,-2.17994 0.005,-3.26993 0.0111,-0.92367 0.0282,-1.84685 0.001,-2.77034 -0.0277,-0.78661 -0.10288,-1.57048 -0.17091,-2.35435 -0.0429,-0.47097 -0.0583,-0.94323 -0.0693,-1.41575 0.002,-0.0384 0.002,-0.077 0.006,-0.11535 0.002,-0.0209 0.003,-0.0426 0.0109,-0.0621 0.003,-0.007 0.007,0.0134 0.006,0.0204 -0.0121,0.082 -0.0671,0.17735 0.004,0.25507 0.0269,0.0296 0.0712,0.0366 0.10677,0.0549 1.1672,0.73665 0.16337,0.10086 -3.106238,-1.78179 -0.0415,-0.0239 0.0849,0.0448 0.12467,0.0716 0.0545,0.0366 0.10857,0.0745 0.1578,0.11798 0.13606,0.12008 0.1707,0.18395 0.27942,0.33108 0.35968,0.59709 0.58512,1.26685 0.850738,1.9095 0.35024,0.82214 0.614,1.67599 0.87402,2.52972 0.24975,0.77592 0.41954,1.57428 0.59209,2.37002 0.21835,1.01767 0.33891,2.05209 0.49906,3.07949 0.17608,1.10868 0.32281,2.22138 0.46002,3.33543 0.0988,0.99985 0.28672,1.9873 0.43658,2.97985 0.14661,0.88906 0.24977,1.78425 0.37446,2.67662 0.0859,0.6479 0.21824,1.28797 0.33083,1.93133 0.13768,0.73259 0.28682,1.46284 0.40356,2.19916 0.10317,0.64207 0.17726,1.28854 0.232,1.93643 0.0717,0.52424 0.188302,1.0406 0.273132,1.56263 0.0176,0.16977 0.0555,0.33741 0.0727,0.5072 0.003,0.0287 -0.0225,0.0731 0.003,0.0865 3.61928,1.88451 3.44361,3.07302 3.56825,1.50058 0.0233,-1.32083 0.17254,-2.63585 0.28527,-3.9512 0.075,-0.95167 0.14987,-1.90301 0.23627,-2.85364 0.054,-0.73112 0.11926,-1.45948 0.24953,-2.18134 0.11117,-0.84214 0.3193,-1.66424 0.49552,-2.49333 0.20746,-1.00078 0.32898,-2.01601 0.48591,-3.02527 0.17663,-1.0124 0.30664,-2.03184 0.4398,-3.05059 0.19767,-1.23616 0.33264,-2.48193 0.43706,-3.72915 0.10583,-1.17661 0.0893,-2.3599 0.21321,-3.53468 0.10482,-0.87866 0.25523,-1.75111 0.40962,-2.62219 0.14589,-0.61072 0.31296,-1.22491 0.56726,-1.80063 0.0287,-0.0491 0.0483,-0.10473 0.086,-0.14721 0.0174,-0.0196 0.0517,-0.0472 0.0723,-0.031 0.0324,0.0255 0.0212,0.0801 0.0381,0.11781 0.0187,0.0418 0.10827,0.14126 0.0681,0.11935 -2.9264,-1.59504 -4.22914,-2.61931 -3.08548,-1.72989 0.39643,0.4285 0.57082,1.00749 0.74079,1.55363 0.23959,0.79525 0.28737,1.62834 0.34762,2.4517 0.0761,0.94733 0.0933,1.8979 0.10338,2.8478 -0.004,1.048 0.0238,2.09543 0.0266,3.14351 -0.005,1.00199 -0.0175,2.00378 -0.0533,3.00513 -0.002,0.9758 -0.20425,1.92981 -0.36805,2.88668 -0.188,0.97657 -0.36604,1.95544 -0.49565,2.94163 -0.10435,0.81053 -0.12861,1.62617 -0.1371,2.44223 -0.009,0.76362 -0.005,1.52722 -0.01,2.29086 -0.0138,0.66194 -0.002,1.32384 -0.006,1.98583 0.002,0.68769 0.008,1.37547 0.004,2.06315 -0.006,0.53266 -0.0157,1.06418 -0.0687,1.59444 -0.0342,0.42389 -0.0904,0.84547 -0.12243,1.26952 -0.039,0.49728 -0.039,0.9963 -0.0535,1.49461 -0.002,0.48228 -7.9e-4,0.96448 -1.6e-4,1.44676 -0.008,0.45019 8e-4,0.90045 -0.005,1.35066 -0.008,0.47823 0.0166,0.95498 0.0464,1.43196 0.023,0.23804 0.0782,0.47 0.13582,0.70134 0,0 3.51101,1.66741 3.51101,1.66741 v 0 c -0.0681,-0.2087 -0.13044,-0.41865 -0.17337,-0.63432 -0.0467,-0.46645 -0.0757,-0.93166 -0.0544,-1.40075 -0.006,-0.45233 0.002,-0.90471 -0.007,-1.35702 -8e-5,-0.48043 -5.2e-4,-0.96079 0.003,-1.44122 -0.005,-0.48975 0.005,-0.97981 0.0398,-1.46844 0.0406,-0.42405 0.11475,-0.84391 0.12438,-1.27046 0.0342,-0.54963 0.0675,-1.0972 0.032,-1.64829 -0.004,-0.68645 0.002,-1.37299 0.004,-2.05945 -0.005,-0.6649 0.006,-1.32974 -0.01,-1.99457 -0.008,-0.76475 -0.008,-1.52946 -0.007,-2.29425 0.009,-0.80706 0.0191,-1.61559 0.0919,-2.4199 0.1048,-0.98548 0.24998,-1.96748 0.46307,-2.9358 0.17189,-0.96788 0.39487,-1.93543 0.40695,-2.92284 0.0431,-1.01424 0.0233,-2.02755 0.0122,-3.04242 0.004,-1.04205 0.035,-2.0837 0.017,-3.12561 -0.009,-0.95416 -0.0179,-1.90889 -0.0759,-2.86162 -0.0653,-0.83529 -0.0744,-1.68198 -0.26404,-2.50109 -0.16201,-0.57171 -0.31884,-1.15318 -0.59854,-1.68036 -0.8429,-1.28671 -0.17291,-0.31815 -3.59919,-2.21523 -0.0533,-0.0295 -0.12532,-0.007 -0.18217,0.0146 -0.213,0.082 -0.31229,0.27572 -0.38269,0.47516 -0.21147,0.62549 -0.39066,1.26247 -0.53527,1.90668 -0.14053,0.88818 -0.26751,1.77903 -0.36967,2.67238 -0.10773,1.18849 -0.0412,2.38519 -0.14715,3.57478 -0.10427,1.23337 -0.26113,2.46038 -0.47426,3.67987 -0.18465,1.01 -0.28187,2.03297 -0.45158,3.04566 -0.15106,0.99763 -0.29359,1.99853 -0.5083,2.98477 -0.1,0.42733 -0.21853,0.85134 -0.30882,1.28084 -0.052,0.24758 -0.0996,0.5643 -0.14779,0.8132 -0.0256,0.13226 -0.0553,0.2637 -0.0829,0.39556 -0.12491,0.73426 -0.22687,1.46942 -0.2788,2.21284 -0.0384,0.97773 -0.0444,1.95535 -0.0769,2.93323 -0.0743,1.2763 -0.16042,2.57008 -0.49818,3.80789 -0.395042,1.40734 -0.0871,0.14148 3.46829,1.99267 0.0227,0.0118 -0.0385,-0.0353 -0.0499,-0.0582 -0.0778,-0.15556 -0.088,-0.34293 -0.12673,-0.50876 -0.10259,-0.51462 -0.20168,-1.02967 -0.30419,-1.5442 -0.0778,-0.6601 -0.17898,-1.31741 -0.25756,-1.97741 -0.0843,-0.46916 -0.0451,-0.23115 -0.11697,-0.71412 -0.086,-0.49517 -0.2273,-0.97987 -0.29108,-1.47927 -0.0816,-0.65229 -0.20864,-1.29586 -0.34155,-1.93939 -0.15552,-0.89852 -0.30558,-1.79605 -0.42074,-2.70104 -0.16918,-0.9911 -0.34067,-1.98331 -0.46419,-2.98094 -0.15383,-1.11882 -0.30096,-2.23849 -0.48067,-3.35361 -0.14728,-1.02174 -0.22114,-2.05357 -0.43285,-3.0658 -0.1425,-0.8107 -0.28575,-1.62555 -0.565652,-2.40242 -0.27232,-0.85784 -0.51389,-1.72658 -0.86504,-2.55691 -0.1779,-0.47091 -0.36212,-0.94124 -0.52567,-1.41735 -0.0318,-0.0927 -0.0519,-0.18943 -0.0867,-0.28108 -0.0305,-0.0803 -0.0726,-0.15564 -0.10887,-0.23346 -0.0588,-0.10636 -0.16173,-0.29754 -0.22974,-0.40046 -0.0385,-0.0582 -0.15821,-0.22591 -0.22957,-0.26809 -3.203838,-1.89396 -2.280028,-1.46636 -3.628738,-2.08281 -0.0422,-0.0181 -0.0809,-0.0491 -0.12645,-0.0543 -0.30816,-0.0356 -0.439775,0.34946 -0.422921,0.58778 0.02739,0.49645 0.09197,0.99018 0.152211,1.48345 0.0892,0.7792 0.15466,1.56139 0.19839,2.34442 0.0555,0.92746 0.0579,1.85564 0.0643,2.78463 0.006,1.09164 -0.004,2.18321 0.005,3.27486 -0.004,1.15762 0.0126,2.31518 0.0132,3.47281 0.002,1.1869 -0.0115,2.37361 -0.0177,3.56048 0.0157,1.17301 0.0147,2.34631 0.0176,3.51941 7.9e-4,1.18968 -0.0168,2.37921 -0.007,3.56891 5.3e-4,1.20118 0.002,2.40234 0.0167,3.60347 0.0125,1.48593 0.0524,2.97195 0.0226,4.45796 -0.0117,1.12089 -0.0116,2.24793 -0.13981,3.36262 0,0 3.499088,1.78288 3.499088,1.78288 z" />
    <path
       style="fill:#000000;stroke-width:0.264583"
       id="path427"
       d="m 111.59812,118.03557 c 0.10967,0.14139 0.22948,0.27546 0.329,0.42416 0.90364,1.35017 1.47305,2.89777 2.03357,4.41045 0.67596,1.97616 1.08801,4.02471 1.41651,6.08297 0.16608,1.25721 0.44797,2.49474 0.63874,3.74819 0.1592,0.95419 0.23345,1.91915 0.26648,2.88509 0.0277,0.76306 -0.0347,1.5256 0.0315,2.28681 0.0344,0.33275 0.0141,0.17005 0.0601,0.48821 0,0 3.49081,1.69669 3.49081,1.69669 v 0 c -0.0734,-0.30771 -0.0396,-0.14802 -0.0998,-0.47943 -0.0224,-0.13952 -0.0776,-0.46767 -0.0881,-0.60369 -0.0433,-0.56388 -0.01,-1.13342 -0.0483,-1.69768 -0.0324,-0.98146 -0.0725,-1.96425 -0.2538,-2.9323 -0.22468,-1.29635 -0.56924,-2.56746 -0.83784,-3.85498 -0.22144,-1.03063 -0.42216,-2.06498 -0.63634,-3.09716 -0.0752,-0.36239 -0.13599,-0.7279 -0.22115,-1.08808 -0.18441,-0.77994 -0.34349,-1.21264 -0.59266,-1.97613 -0.5717,-1.61882 -1.1938,-3.21811 -1.92225,-4.7738 0,0 -3.56658,-1.51932 -3.56658,-1.51932 z" />
    <path
       style="fill:#000000;stroke-width:0.264583"
       id="path429"
       d="m 119.42698,117.04514 c 0.17389,1.4294 0.17898,2.87366 0.14225,4.31099 -0.0211,1.61738 -0.28749,3.2132 -0.58004,4.79924 -0.2227,1.11397 -0.52351,2.21132 -0.84168,3.3014 -0.31338,1.03149 -0.60887,2.06949 -0.87707,3.11374 -0.31689,1.24732 -0.59168,2.50348 -0.80937,3.77178 -0.23162,1.1162 -0.40683,2.24216 -0.58322,3.3679 -0.15002,0.99068 -0.29313,1.98218 -0.42151,2.97594 -0.073,0.77709 -0.25442,1.53754 -0.35287,2.31098 -0.0755,0.59682 -0.0522,1.19918 -0.0547,1.79903 0.0197,0.67738 -0.0847,1.35052 -0.17975,2.01925 -0.0722,0.56527 -0.15283,1.12962 -0.28929,1.68338 -0.0888,0.28305 -0.12644,0.43057 -0.43722,0.42418 -0.35938,0.005 -0.71934,0.0217 -1.07704,-0.0169 -0.20523,-0.034 -0.41569,-0.0273 -0.61593,-0.0904 -0.18934,-0.0597 -0.37477,-0.14845 -0.56219,-0.21567 -0.0532,-0.0247 -0.10583,-0.0507 -0.15959,-0.0741 -0.0496,-0.0216 -0.24546,-0.0967 -0.29439,-0.12306 -0.0495,-0.0267 -0.19052,-0.11967 -0.14167,-0.0918 2.95894,1.69016 4.27099,2.49094 3.08702,1.76961 -0.0975,-0.0661 -0.18524,-0.14249 -0.26848,-0.22525 0,0 -3.60668,-1.58549 -3.60668,-1.58549 v 0 c 0.0578,0.13336 0.11845,0.25646 0.23232,0.35295 1.16256,1.12354 2.71361,1.82891 4.23132,2.37461 0.39961,0.13155 0.80397,0.20715 1.22644,0.21322 0.39363,0.0113 0.79734,0.035 1.18345,-0.0555 0.40421,-0.16749 0.52011,-0.40118 0.61541,-0.8184 0.12541,-0.57209 0.19585,-1.1547 0.2659,-1.73565 0.0914,-0.68478 0.19883,-1.37243 0.2034,-2.06427 0.002,-0.58603 0.0229,-1.17199 0.0542,-1.75718 0.0603,-0.78793 0.16017,-1.57124 0.25594,-2.35552 0.1035,-0.99487 0.2943,-1.97569 0.41659,-2.96783 0.14551,-1.13425 0.29688,-2.26779 0.49983,-3.39354 0.25495,-1.24652 0.45959,-2.50528 0.84547,-3.7213 0.28568,-1.03742 0.5943,-2.06822 0.86495,-3.1097 0.32596,-1.10705 0.67603,-2.2126 0.8242,-3.36151 0.23904,-1.62706 0.43352,-3.26425 0.4668,-4.91012 0.0639,-1.37653 0.0777,-2.76082 0.24148,-4.12963 0,0 -3.50426,-1.78551 -3.50426,-1.78551 z" />
    <path
       style="fill:#000000;stroke-width:0.264583"
       id="path433"
       d="m 125.15976,110.43435 c 0.0216,1.09402 -0.0515,2.18546 -0.0376,3.27945 0.0338,0.96336 0.084,1.92603 0.11015,2.88963 0.037,0.92882 0.19095,1.84639 0.26682,2.77216 0.0613,0.78096 0.0669,1.56395 0.068,2.34676 0.002,0.71833 0.008,1.43676 -5.3e-4,2.15506 -0.003,0.63705 -0.008,1.27412 -0.0132,1.91118 0.007,0.69392 0.0131,1.38779 0.0191,2.08173 -0.0122,0.70591 -0.006,1.41199 -0.005,2.11796 0.0144,0.8849 0.0186,1.76992 0.0333,2.65481 0.0163,1.13266 0.009,2.26543 0.0233,3.39813 -0.007,1.20594 -0.1034,2.40897 -0.1873,3.61134 -0.0544,0.61648 -0.0985,1.23344 -0.12705,1.8516 -0.0114,0.21795 -0.005,0.11559 -0.0194,0.30714 0,0 3.48865,1.80008 3.48865,1.80008 v 0 c 0.006,-0.217 0.007,-0.10471 -0.003,-0.33684 -0.017,-0.63766 -0.0274,-1.27562 -0.0242,-1.91351 0.0273,-1.21646 0.11503,-2.42903 0.15964,-3.64462 0.0148,-1.12478 0.007,-2.24962 0.0233,-3.37435 0.0148,-0.87358 0.0189,-1.74728 0.0333,-2.62087 0.001,-0.70769 0.007,-1.41548 -0.005,-2.12311 0.006,-0.68738 0.0119,-1.37468 0.0193,-2.06204 -0.005,-0.641 -0.009,-1.28203 -0.0108,-1.92303 -0.007,-0.72019 0.002,-1.44042 -0.002,-2.16064 -0.0125,-0.79798 -0.0294,-1.59696 -0.0936,-2.39267 -0.0415,-0.45808 -0.0865,-0.9149 -0.14403,-1.3713 -0.0383,-0.30367 -0.0942,-0.60536 -0.12008,-0.91033 -0.0134,-0.15744 -0.0122,-0.31578 -0.0184,-0.47367 -0.0272,-0.97365 -0.0841,-1.94471 -0.1588,-2.91582 -0.0519,-1.03462 -0.0508,-2.09357 0.19328,-3.10592 0,0 -3.46823,-1.84831 -3.46823,-1.84831 z" />
    <path
       style="fill:#000000;stroke-width:0.264583"
       id="path435"
       d="m 128.12523,113.6795 c 0.69584,-0.55262 1.51097,-0.88926 2.33643,-1.19412 0.78681,-0.2563 1.60819,-0.39639 2.42894,-0.49058 0.47409,-0.0507 0.95125,-0.0452 1.42726,-0.0478 0.34072,0.005 0.68141,0.0109 1.02211,0.0171 0.2218,0.003 0.44369,0.007 0.66552,0.005 0.10377,-10e-4 0.20753,1.1e-4 0.31129,0.002 0,0 -3.19644,-2.32238 -3.19644,-2.32238 v 0 c -0.10235,0.001 -0.2047,0.003 -0.30706,0.001 -0.21758,-0.002 -0.43522,0.001 -0.65281,0.002 -0.32992,0.003 -0.65982,0.005 -0.98969,0.0129 -0.47848,0.006 -0.95715,0.0336 -1.4295,0.11468 -0.80139,0.15725 -1.60031,0.34335 -2.36584,0.63223 -0.87362,0.3496 -1.7288,0.73994 -2.58011,1.14049 0,0 3.3299,2.12714 3.3299,2.12714 z" />
    <path
       style="fill:#000000;stroke-width:0.264583"
       id="path437"
       d="m 129.75202,128.31228 c 0.0351,-0.0173 0.0718,-0.0318 0.10539,-0.052 0.0588,-0.0353 0.11136,-0.0806 0.17121,-0.11404 0.3034,-0.16966 0.6576,-0.26197 0.99047,-0.35219 0.49799,-0.0955 1.00246,-0.16358 1.50689,-0.21695 0.42237,-0.0114 0.83153,-0.12077 1.23867,-0.22773 0.49028,-0.13364 0.99617,-0.21161 1.48253,-0.35672 0.0805,-0.0228 0.16103,-0.0455 0.24155,-0.0682 0,0 -3.19781,-2.18884 -3.19781,-2.18884 v 0 c -0.0762,0.0225 -0.15242,0.0449 -0.22863,0.0674 -0.49776,0.11583 -0.99665,0.22606 -1.49632,0.33302 -0.40375,0.0835 -0.80378,0.17066 -1.21689,0.19676 -0.5057,0.0822 -1.01597,0.14282 -1.50958,0.28617 -0.47408,0.14742 -0.93524,0.32339 -1.39179,0.51817 0,0 3.30431,2.17514 3.30431,2.17514 z" />
    <path
       style="fill:#000000;stroke-width:0.264583"
       id="path441"
       d="m 136.12372,116.51964 c 0.11429,0.59572 0.18876,1.19705 0.25327,1.79987 0.06,0.61727 0.13942,1.23183 0.19154,1.84996 0.0552,0.68907 0.0452,1.38135 0.0571,2.07212 0.0132,0.83045 0.0267,1.66058 0.0222,2.4912 -0.0105,0.69191 -0.0267,1.38375 -0.0312,2.07573 5.3e-4,0.75402 0.0258,1.50749 0.0314,2.26159 -0.001,0.79476 1.4e-4,1.5896 -0.026,2.38402 -0.0129,0.7039 0.0164,1.4073 0.013,2.11125 -7.9e-4,0.76638 0.004,1.53285 -0.003,2.2992 0.001,0.86848 0.0199,1.73673 0.0272,2.6052 0.0133,0.91292 -0.002,1.82584 -0.027,2.73839 -0.0165,0.56884 -0.0279,1.13803 -0.008,1.70689 0.0105,0.23486 0.008,0.1268 0.0101,0.3241 0,0 3.52286,1.74231 3.52286,1.74231 v 0 c -0.0454,-0.20134 -0.0243,-0.0913 -0.0592,-0.33079 -0.0704,-0.56905 -0.0525,-1.14016 -0.0703,-1.71263 -0.025,-0.92173 -0.0404,-1.84383 -0.027,-2.76592 0.007,-0.85924 0.0258,-1.71825 0.0272,-2.5775 -0.007,-0.76742 -0.002,-1.53496 -0.003,-2.30241 -0.003,-0.69953 0.026,-1.3985 0.013,-2.09799 -0.0255,-0.80325 -0.0248,-1.60688 -0.026,-2.41047 0.005,-0.74341 0.0309,-1.48616 0.0315,-2.22949 -0.004,-0.70227 -0.0201,-1.4044 -0.0297,-2.10662 -0.004,-0.82426 0.0122,-1.64796 0.0206,-2.47209 0.004,-0.69799 -0.0218,-1.39479 -0.0439,-2.09231 -0.0331,-0.62332 -0.0916,-1.2447 -0.1705,-1.86392 -0.0823,-0.56698 -0.12861,-1.13672 -0.17792,-1.70738 0,0 -3.51761,-1.79231 -3.51761,-1.79231 z" />
    <path
       style="fill:#000000;stroke-width:0.264583"
       id="path443"
       d="m 136.67372,108.13056 c 0.0854,0.63698 0.0263,1.28022 -0.007,1.91867 -0.0181,0.49339 -0.0676,0.98519 -0.0857,1.47848 -0.006,0.42209 0.007,0.84414 0.0325,1.26544 0.0299,0.32413 0.0416,0.64943 0.054,0.97456 0.003,0.11654 0.006,0.23303 0.01,0.34953 0,0 3.50941,1.78356 3.50941,1.78356 v 0 c 0.002,-0.12045 0.002,-0.24078 -0.004,-0.36114 -0.016,-0.33832 -0.0621,-0.67371 -0.0918,-1.01102 -0.0434,-0.40707 -0.0383,-0.8118 -0.0267,-1.22072 -0.006,-0.50246 -0.0264,-1.00501 -2.1e-4,-1.50739 0.027,-0.62681 0.0598,-1.25423 0.12695,-1.87802 0,0 -3.5169,-1.79195 -3.5169,-1.79195 z" />
    <path
       style="fill:#000000;stroke-width:0.264583"
       id="path449"
       d="m 142.74139,106.23015 c 0.0445,0.32298 0.13355,0.97053 0.16233,1.16452 0.37,2.49406 0.5264,3.19837 0.78184,6.07696 0.35946,4.05087 0.38989,6.39212 0.54278,10.51377 0.14151,5.94332 0.0466,11.8936 -0.33402,17.82677 -0.0515,0.80192 -0.12101,1.60258 -0.18151,2.40388 0,0 2.42775,1.23594 2.42775,1.23594 v 0 c -0.17832,-2.32988 -0.28598,-3.60322 -0.42172,-6.03938 -0.27603,-4.95387 -0.42735,-9.91505 -0.40745,-14.87703 0.0737,-5.50856 0.0541,-11.05878 0.95092,-16.51144 0,0 -3.52092,-1.79399 -3.52092,-1.79399 z" />
    <path
       style="fill:#000000;stroke-width:0.264583"
       id="path451"
       d="m 147.37219,129.01555 c 1.10795,1.02643 0.1552,0.15974 3.62837,2.15272 0.2199,0.12618 0.53622,0.21584 0.78155,0.27481 0.45073,0.10093 0.90621,0.15874 1.367,0.18588 0.70591,0.0243 1.4124,0.0186 2.11856,0.0126 0.66635,-0.006 1.33229,0.0165 1.99839,0.0282 0.55391,0.0421 1.02979,-0.21784 1.45652,-0.54367 0.54859,-0.52977 0.78136,-1.24382 0.96386,-1.9628 0.10037,-0.64431 -0.0387,-1.15462 -0.27926,-1.74173 -0.24443,-0.58478 -0.56588,-1.13338 -0.86684,-1.69014 -0.40157,-0.74621 -0.74447,-1.52149 -1.0947,-2.2925 -0.24545,-0.55549 -0.52005,-1.09716 -0.85835,-1.60191 -0.27699,-0.3777 -0.64341,-0.67753 -0.98033,-0.99971 -0.24808,-0.26594 -0.49625,-0.53043 -0.75417,-0.78684 -1.07502,-0.98559 -0.16503,-0.16372 -3.5588,-2.09652 -0.11841,-0.0674 -0.32073,-0.0319 -0.44016,0.003 -0.40046,0.21476 -0.71484,0.57871 -1.00477,0.92214 -0.40233,0.54291 -0.76956,1.11527 -1.03745,1.73664 -0.23503,0.64817 -0.4119,1.31671 -0.58131,1.98467 -0.12821,0.63231 -0.29293,1.25521 -0.38295,1.89464 -0.0725,0.51912 -0.093,1.04077 -0.0843,1.56402 0.0301,0.73614 -0.0408,1.47229 -0.12641,2.20266 -0.11631,0.86785 -0.27155,1.72994 -0.38088,2.59887 -0.0966,0.75015 -0.13181,1.50528 -0.13874,2.26093 0.019,0.8706 -0.0684,1.73807 -0.12386,2.60588 -0.05,0.87895 -0.0701,1.75891 -0.0958,2.63875 0.0417,0.73163 0.18579,1.20356 0.64684,1.76819 0.29797,0.33315 0.59886,0.66287 0.92448,0.96925 1.14352,0.97364 0.25524,0.23031 3.63884,2.11593 0.0556,0.031 0.12357,0.0312 0.18423,0.0506 0.0579,0.0185 0.11517,0.0395 0.17121,0.0631 0.35225,0.14854 -0.0418,0.009 0.32571,0.13195 0.34668,0.18069 0.7111,0.20252 1.09059,0.14649 0.14945,-0.0316 0.37275,-0.0628 0.51081,-0.12977 0.23486,-0.1139 0.48413,-0.32581 0.69276,-0.48003 0.49746,-0.36309 1.03128,-0.67357 1.55454,-0.99775 0.46537,-0.25136 0.90683,-0.54328 1.37247,-0.79415 0.46924,-0.25553 0.91139,-0.55459 1.36713,-0.83198 0.0606,-0.0386 0.12122,-0.0772 0.18182,-0.11574 0,0 -3.27789,-2.09885 -3.27789,-2.09885 v 0 c -0.0565,0.0395 -0.11305,0.079 -0.16958,0.11849 -0.42988,0.29861 -0.87804,0.56693 -1.33894,0.81526 -0.46926,0.26097 -0.91595,0.55998 -1.38705,0.81806 -0.50799,0.34227 -1.02792,0.66626 -1.53019,1.01705 -0.37781,0.21911 -0.70342,0.39297 -1.14871,0.40151 -0.35326,-0.0186 -0.67215,-0.14545 -0.99618,-0.28004 -0.16271,-0.0689 -0.33183,-0.12129 -0.49405,-0.19064 -0.0555,-0.0237 -0.21484,-0.10953 -0.16281,-0.079 2.97841,1.74746 4.28613,2.42572 3.03901,1.77615 -0.37065,-0.25774 -0.6766,-0.58799 -0.97419,-0.92536 -0.014,-0.0139 -0.35685,-0.35404 -0.36188,-0.35991 -0.28653,-0.33419 -0.41457,-0.74939 -0.47203,-1.17931 -0.01,-0.87981 -0.003,-1.7607 0.049,-2.63921 0.0562,-0.8671 0.1696,-1.72977 0.17938,-2.59899 0.0132,-0.74742 0.0186,-1.49609 0.0908,-2.2408 0.0975,-0.86852 0.23045,-1.73326 0.40257,-2.59023 0.0797,-0.73604 0.16885,-1.47351 0.19294,-2.21361 0.016,-0.50895 0.0112,-1.0189 0.0559,-1.52648 0.0724,-0.6308 0.20854,-1.24706 0.34383,-1.86664 0.15302,-0.65153 0.31807,-1.30455 0.57131,-1.92531 0.22729,-0.59266 0.55708,-1.13627 0.96772,-1.62124 0.22148,-0.22438 0.56698,-0.64603 0.9196,-0.6024 0.08,0.033 0.15768,0.0585 0.23129,0.10522 0.0258,0.0164 0.10194,0.0674 0.0755,0.0521 -3.40859,-1.97596 -4.39324,-2.46351 -3.15325,-1.84561 0.30959,0.21079 0.56397,0.4943 0.81609,0.76853 0.31102,0.33567 0.6603,0.63197 0.99182,0.947 0.39445,0.47846 0.72414,1.00402 0.97545,1.57216 0.37948,0.75579 0.70082,1.53822 1.06874,2.29959 0.28586,0.54026 0.56891,1.08319 0.83141,1.63493 0.21558,0.49825 0.47181,0.98067 0.40865,1.54389 -0.11122,0.64385 -0.2894,1.29183 -0.83414,1.70605 -0.4689,0.29832 -0.79738,0.35311 -1.34554,0.33251 -0.63906,0.0135 -1.27795,0.0381 -1.91734,0.0283 -0.7209,-0.0117 -1.44364,-0.0146 -2.16176,-0.0857 -0.4511,-0.056 -0.90322,-0.13089 -1.33734,-0.2686 -0.18894,-0.0755 -0.37913,-0.14881 -0.55916,-0.24447 -0.0612,-0.0325 -0.24017,-0.13815 -0.18034,-0.10324 3.19532,1.86466 4.28841,2.3722 3.06595,1.80004 0,0 -3.66125,-1.49782 -3.66125,-1.49782 z" />
    <path
       style="fill:#000000;stroke-width:0.264583"
       id="path593"
       d="m 89.072405,103.84051 c -0.70548,-3.46165 -1.073814,-6.979744 -1.357852,-10.497384 -0.241784,-3.43879 -0.303334,-6.887147 -0.303567,-10.3334 -0.03574,-2.075216 0.08274,-4.146685 0.217313,-6.216337 0.105701,-1.625198 0.128614,-3.25347 0.13004,-4.881522 0.0079,-1.670647 -0.005,-3.341489 0.02774,-5.011921 0.06619,-1.848992 0.05213,-1.168898 -3.566668,-2.509739 -0.157784,-0.05846 -0.16597,0.293986 -0.227734,0.450506 -0.216535,0.548735 -0.370938,1.120018 -0.561875,1.678178 -1.211612,3.304633 -3.216002,6.232107 -5.189931,9.118071 -0.848887,1.249487 -1.680927,2.510573 -2.505329,3.776337 -0.144188,0.221382 -0.27554,0.451276 -0.427181,0.66762 -0.06384,0.09108 -0.31283,0.194771 -0.217887,0.252696 1.10399,0.673526 2.314316,1.154845 3.471471,1.732269 0.69963,-2.35789 1.736836,-4.604308 2.727635,-6.851327 1.027236,-2.358438 2.217906,-4.639021 3.216989,-7.009495 0.481298,-1.234583 0.814969,-2.539423 1.514713,-3.675335 0.242462,-0.195059 0.53585,-0.269184 0.830966,-0.119197 0.09946,0.05055 0.359461,0.26136 0.26008,0.210664 -3.083745,-1.573073 -3.688458,-2.512405 -2.515166,-1.006979 1.36611,2.431556 2.687632,4.881703 4.16346,7.250512 1.565603,2.207347 2.778408,4.622062 3.974745,7.040121 0,0 3.453291,1.561127 3.453291,1.561127 v 0 c -1.241095,-2.420693 -2.414134,-4.88508 -4.016789,-7.097583 -1.475068,-2.331388 -2.831362,-4.727306 -4.028628,-7.2144 -1.167423,-1.823284 -0.331565,-0.710905 -4.109513,-2.988966 -0.486677,-0.29346 -1.083779,0.05223 -1.410274,0.401135 -0.655995,1.186553 -1.00647,2.502064 -1.444313,3.778197 -0.939345,2.394455 -2.128618,4.676182 -3.131556,7.043933 -1.018098,2.279216 -1.99994,4.57549 -3.011688,6.856523 1.150781,0.693436 2.245093,1.490652 3.452341,2.080308 0.10608,0.05181 0.107548,-0.210196 0.161613,-0.315145 0.119042,-0.231071 0.230878,-0.466024 0.357712,-0.692912 0.733866,-1.312778 1.553604,-2.577812 2.373405,-3.837493 1.956697,-2.931893 4.048167,-5.825379 5.387519,-9.107739 0.210416,-0.524354 0.390766,-1.061651 0.629111,-1.573911 0.04238,-0.09109 0.243173,-0.195802 0.161586,-0.254436 -4.685884,-3.367616 -3.274147,-3.070834 -3.234888,-1.407675 0.03405,1.676553 0.02442,3.353609 0.01519,5.030379 -0.02257,1.62198 -0.04309,3.2444 -0.122362,4.864848 -0.09505,2.091812 -0.251989,4.182407 -0.151889,6.277745 0.07046,3.474331 0.159694,6.948813 0.410699,10.415853 0.270965,3.47696 0.684287,6.93575 1.058651,10.402214 0,0 3.538818,1.71366 3.538818,1.71366 z" />
    <path
       style="fill:#000000;stroke-width:0.264583"
       id="path595"
       d="m 107.0082,60.607712 c 0.55448,2.221988 1.06361,4.44178 1.39913,6.70968 0.44645,3.611091 0.50092,7.254468 0.53269,10.88816 0.0191,3.088238 -0.006,6.176483 -0.0166,9.264704 -0.0529,2.38374 -0.005,4.76353 0.10322,7.14467 0.055,1.29795 0.0998,2.59648 0.11523,3.89555 0.0437,2.991054 -0.0921,1.917424 3.87929,3.713004 1.34631,-2.806944 2.81489,-5.551234 4.31181,-8.280154 0.98042,-2.06685 2.48126,-3.90376 3.26148,-6.06583 0.004,-0.0953 0.0982,-0.24553 0.0118,-0.28589 -1.24235,-0.58019 -2.48843,-1.219669 -3.83108,-1.497762 -0.24815,-0.0514 -0.31107,0.400595 -0.45324,0.610378 -0.80259,1.184264 -1.45884,2.464224 -2.1379,3.720374 -1.41483,2.61532 -2.67004,5.30164 -3.83417,8.03575 -0.0811,0.19184 -0.5595,1.39003 -0.94566,1.37951 -0.13033,-0.004 -0.44189,-0.27605 -0.32633,-0.21567 0.96274,0.502974 1.87891,1.098574 2.86945,1.544294 0.25045,0.11269 -0.41771,-0.35669 -0.62657,-0.53504 -1.35465,-1.335413 -2.66954,-2.729514 -3.73146,-4.312204 -0.65007,-1.055809 -1.18589,-2.16744 -1.58635,-3.33928 -0.2977,-1.072239 -0.39572,-2.18038 -0.79828,-3.223069 -0.0692,-0.13465 -0.13834,-0.269311 -0.20751,-0.40397 0,0 -3.57979,-1.597391 -3.57979,-1.597391 v 0 c 0.0765,0.1225 0.15294,0.245001 0.22941,0.36749 0.48662,1.012021 0.58723,2.105841 0.81855,3.19272 0.37955,1.22064 0.95661,2.35037 1.59829,3.45451 1.01316,1.63356 2.38682,2.99992 3.69194,4.40066 1.50556,1.510074 1.00744,1.110114 4.45378,2.812794 0.15765,0.0779 0.36314,0.009 0.52379,-0.0626 0.55147,-0.2454 0.71749,-1.15289 0.94524,-1.60255 1.0585,-2.766293 2.25797,-5.467273 3.70733,-8.055073 0.79238,-1.39625 0.78542,-1.450681 1.64986,-2.73016 0.19389,-0.28699 0.39213,-0.57157 0.6058,-0.84416 0.14341,-0.182951 0.63361,-0.361631 0.46401,-0.520611 -2.61134,-2.447744 -4.35188,-1.409818 -2.96326,-2.167468 -0.12461,0.729984 -0.43626,1.342378 -0.7729,2.002599 -0.70738,1.38731 -1.49288,2.73287 -2.20927,4.11543 -1.46336,2.68365 -2.87416,5.40496 -4.49036,7.999713 1.10509,0.65701 2.21759,1.30171 3.31526,1.97105 0.0581,0.0354 -0.15397,-0.0113 -0.19288,-0.0671 -0.0715,-0.10265 -0.0829,-0.23721 -0.10495,-0.36038 -0.0815,-0.45623 -0.0259,-0.92301 -0.049,-1.38238 -0.0429,-1.319343 -0.12129,-2.636653 -0.2069,-3.953883 -0.13107,-2.38404 -0.209,-4.76732 -0.16812,-7.15574 -0.003,-3.101297 -0.0124,-6.202602 -0.0487,-9.303715 -0.0596,-3.638365 -0.0806,-7.286029 -0.46865,-10.907932 -0.18166,-1.401683 -0.38962,-2.784194 -0.68819,-4.166349 -0.13281,-0.614857 -0.31916,-1.217996 -0.43539,-1.836205 -0.0394,-0.209407 -0.0483,-0.4234 -0.0725,-0.635098 0,0 -3.54136,-1.715405 -3.54136,-1.715405 z" />
    <path
       style="fill:#000000;stroke-width:0.264583"
       id="path597"
       d="m 24.541933,97.666996 c 1.829234,-0.0505 3.65955,-0.0291 5.489162,-0.0148 1.207884,0.006 2.415784,0.0107 3.623681,0.0106 1.564097,-0.009 3.128179,-0.0172 4.692306,-0.0194 1.919338,-0.006 3.834802,-0.15805 5.752444,-0.23314 1.568775,-0.0519 3.138482,-0.0704 4.708035,-0.0765 1.447998,-8e-4 2.895957,0.007 4.343958,0.005 1.554814,-0.005 3.109616,1e-4 4.664438,-0.007 1.902171,-0.0135 3.804367,-0.006 5.706546,-0.001 1.425448,0.01 2.850928,0.0107 4.276405,0.011 1.462056,-0.0553 2.905606,-0.29722 4.35682,-0.46418 1.057145,-0.12016 2.121286,-0.1447 3.18413,-0.15445 0.138928,-5e-5 0.277852,-10e-5 0.416777,-1.6e-4 0,0 -3.17822,-2.30396 -3.17822,-2.30396 v 0 c -0.136472,0.003 -0.272944,0.006 -0.409416,0.009 -1.063792,0.0267 -2.129668,0.058 -3.185226,0.20407 -1.436206,0.18749 -2.869917,0.42815 -4.323003,0.43006 -1.415328,2.7e-4 -2.830661,0.001 -4.245962,0.0111 -1.903518,0.004 -3.807053,0.0121 -5.710563,-0.002 -1.561997,-0.007 -3.123983,-0.003 -4.685967,-0.009 -1.442653,-0.003 -2.885268,0.001 -4.3279,0.009 -1.569485,0.008 -3.139358,0.0101 -4.707104,0.0956 -1.911832,0.0911 -3.823195,0.24473 -5.738265,0.22286 -1.581904,-0.002 -3.163766,-0.0104 -4.745643,-0.0194 -1.198155,-1.1e-4 -2.396313,0.004 -3.59445,0.0106 -1.843172,0.0148 -3.686971,0.0348 -5.529794,-0.0148 0,0 3.166811,2.30082 3.166811,2.30082 z" />
    <path
       style="fill:#000000;stroke-width:0.264583"
       id="path599"
       d="m 127.57767,94.142087 c 3.90214,0.0545 7.80508,0.0501 11.70548,0.19364 2.6169,0.15457 5.24402,0.170959 7.84994,0.47058 2.32318,0.241209 4.65685,0.382239 6.99046,0.4739 1.66367,0.0161 3.29416,0.38319 4.94699,0.53631 1.97038,0.134379 3.94669,0.126 5.92056,0.13539 1.69518,0.003 3.39032,0.0125 5.08539,0.0325 0.59049,0.004 1.18097,0.01 1.77147,0.01 0,0 -3.19291,-2.31941 -3.19291,-2.31941 v 0 c -0.57964,5.3e-4 -1.15924,0.008 -1.73885,0.0144 -1.66592,0.0255 -3.33205,0.0373 -4.99817,0.0273 -1.98366,-0.0145 -3.97108,-0.0252 -5.9484,-0.2011 -1.64058,-0.181309 -3.27246,-0.492949 -4.92789,-0.491669 -2.32761,-0.0816 -4.65555,-0.202191 -6.96816,-0.4908 -2.56634,-0.25901 -5.1491,-0.23622 -7.72459,-0.342 -3.97131,-0.0857 -7.95038,-0.0455 -11.91269,-0.3648 0,0 3.14137,2.31609 3.14137,2.31609 z" />
    <path
       style="display:inline;fill:#008080;stroke-width:1.18911"
       d=""
       id="path908"
       transform="scale(0.26458333)" />
  </g>
</svg>
